inDegrees=yes
name=ik_S46_A06_T01
DataType=double
version=3
OpenSimVersion=4.3-2021-08-27-4bc7ad9
endheader
time	pelvis_tilt	pelvis_list	pelvis_rotation	pelvis_tx	pelvis_ty	pelvis_tz	hip_flexion_r	hip_adduction_r	hip_rotation_r	knee_angle_r	knee_angle_r_beta	ankle_angle_r	subtalar_angle_r	mtp_angle_r	hip_flexion_l	hip_adduction_l	hip_rotation_l	knee_angle_l	knee_angle_l_beta	ankle_angle_l	subtalar_angle_l	mtp_angle_l	lumbar_extension	lumbar_bending	lumbar_rotation	arm_flex_r	arm_add_r	arm_rot_r	elbow_flex_r	pro_sup_r	wrist_flex_r	wrist_dev_r	arm_flex_l	arm_add_l	arm_rot_l	elbow_flex_l	pro_sup_l	wrist_flex_l	wrist_dev_l
0	0	0	0	0	0.9399999999999999	0	0	0	0	0	0	0	0	0	0	0	0	0	0	0	0	0	0	0	0	0	0	0	0	89.99999999963507	0	0	0	0	0	0	89.99999999869995	0	0
0.02	-12.06950461606056	-0.9954251560827582	26.69509291422273	0	0.9399999999999999	0	3.483743960828485	-1.65452872092438	-1.175759261669399	5.363422723863692	0.09360938570770408	0	0	0	3.483743960828485	-1.65452872092438	-1.175759261669399	5.363422723863692	0.09360938570770408	0	0	0	-8.089058110364313	-4.167502225757891	4.740763287968786	12.54933142825893	-7.85454480697198	0.6451587686779471	69.02342873559994	135.5395269929726	0	0	13.7156854466702	-7.33235625496664	-8.724240759209932	57.44010814212729	137.9562170923632	0	0
0.04	-10.34070770856565	-2.368762773159424	26.0430698666533	0	0.9399999999999999	0	47.04369643238543	-9.832174432947918	-11.06616825081869	52.89792268982723	0.9232429184029003	0	0	0	47.04369643238543	-9.832174432947918	-11.06616825081869	52.89792268982723	0.9232429184029003	0	0	0	-8.96277937198705	-2.296458626205341	5.732848367864544	12.54321315298377	-7.846390345834593	0.6338047918760122	69.00735537987879	135.5599282999634	0	0	13.71657901681636	-7.337517579235062	-8.723727745926448	57.44092565087099	137.9202966336594	0	0
0.06	-10.33221491188916	-2.376026368268475	26.05635445029879	0	0.9399999999999999	0	47.03864050465704	-9.833299829136488	-11.06101867158679	52.90153821651528	0.9233060212478006	0	0	0	47.03864050465704	-9.833299829136488	-11.06101867158679	52.90153821651528	0.9233060212478006	0	0	0	-8.960754183591353	-2.298652946426308	5.725321713385696	12.53513082477751	-7.839240909151808	0.6614655398998784	69.02930707490766	135.5438526015372	0	0	13.71286452264785	-7.334633527232816	-8.705955110358151	57.47233298584553	137.9153726689518	0	0
0.08	-10.32911466725657	-2.38237277624577	26.06711249161626	0	0.9399999999999999	0	47.03427482600325	-9.834355181418948	-11.05637984682242	52.90462361646539	0.9233598716356709	0	0	0	47.03427482600325	-9.834355181418948	-11.05637984682242	52.90462361646539	0.9233598716356709	0	0	0	-8.962896299525653	-2.298910019796619	5.720654645084601	12.53731240056265	-7.83144778068253	0.6757332469647964	69.04358357237213	135.5214598088164	0	0	13.72472631010277	-7.340770218933518	-8.702036834326497	57.49947592407722	137.8989941910051	0	0
0.1	-10.3181599524813	-2.381778977999788	26.0832553764231	0	0.9399999999999999	0	47.03127683418516	-9.835143137688846	-11.05306100025694	52.9067196877217	0.9233964549804498	0	0	0	47.03127683418516	-9.835143137688846	-11.05306100025694	52.9067196877217	0.9233964549804498	0	0	0	-8.953964486563011	-2.299523289272229	5.722517407088266	12.51826584149123	-7.841517291411423	0.6748987212754494	69.03669354689333	135.5266430906575	0	0	13.72006073711589	-7.331894851337449	-8.686881780451868	57.49486285839905	137.9186342430522	0	0
0.12	-10.31589071205827	-2.385338157320109	26.09084663760721	0	0.9399999999999999	0	47.03003975090137	-9.835457394765902	-11.05172254658852	52.90759416287293	0.9234117174510655	0	0	0	47.03003975090137	-9.835457394765902	-11.05172254658852	52.90759416287293	0.9234117174510655	0	0	0	-8.954047695371617	-2.301731442913379	5.720754826596714	12.52873068044829	-7.839458776886159	0.647939748005261	69.03752296701816	135.5203927210144	0	0	13.72910206648568	-7.343013054461945	-8.704676309439057	57.48330331949327	137.9192251732731	0	0
0.14	-10.31074572409774	-2.387769313827982	26.0985663117327	0	0.9399999999999999	0	47.02739050636122	-9.83622151783066	-11.04862663511338	52.90941629337176	0.9234435196276712	0	0	0	47.02739050636122	-9.83622151783066	-11.04862663511338	52.90941629337176	0.9234435196276712	0	0	0	-8.951619311344629	-2.302065016746867	5.717985694453452	12.54853019288774	-7.832076966937898	0.6540018317822687	69.0392248033576	135.4880474019463	0	0	13.72355309273074	-7.330001423683899	-8.700979383219218	57.49317785886307	137.8868668439451	0	0
0.16	-10.29893509534032	-2.392416917123684	26.11811587204302	0	0.9399999999999999	0	47.02467722258656	-9.836947345043068	-11.04559444108186	52.91130832750228	0.9234765418528088	0	0	0	47.02467722258656	-9.836947345043068	-11.04559444108186	52.91130832750228	0.9234765418528088	0	0	0	-8.94402265405477	-2.308263957953277	5.720230890139925	12.52256120816655	-7.839573455594908	0.6209590875306447	69.02587444428526	135.4866630139103	0	-1.077613842297402e-35	13.73779898718157	-7.332978608113364	-8.712901094189437	57.49510555769223	137.9113597708132	0	-1.077613842297402e-35
0.18	-10.2943823297	-2.39174975821338	26.12088406157386	0	0.9399999999999999	0	47.02283798882684	-9.837522081775138	-11.04335051083456	52.91255657055141	0.9234983278038813	0	0	0	47.02283798882684	-9.837522081775138	-11.04335051083456	52.91255657055141	0.9234983278038813	0	0	0	-8.940580485144405	-2.306451749127229	5.716399926633959	12.52978173567216	-7.835811528319756	0.6361829378067148	69.02709135319216	135.4896529632559	0	1.898351635082151e-53	13.73415750767031	-7.328755097916972	-8.711840511637506	57.48549024875508	137.9031866709403	0	1.898351635082151e-53
0.2	-10.29327078644422	-2.393869584641855	26.12600953491017	0	0.9399999999999999	0	47.01942800430081	-9.838179810797845	-11.0401144625778	52.91504004762886	0.9235416726557808	-4.806870379612941e-35	0	0	47.01942800430081	-9.838179810797845	-11.0401144625778	52.91504004762886	0.9235416726557808	-4.806870379612941e-35	0	0	-8.942304190582881	-2.302705363149983	5.710165774159801	12.52393657528598	-7.83694919303177	0.631920744947204	69.03017625086078	135.4987916129162	0	0	13.74417080241142	-7.328540016639544	-8.7234361416499	57.50277968784393	137.8937646207979	0	0
